<?xml version="1.0" encoding="utf-8"?>
<!-- Generator: Adobe Illustrator 25.0.1, SVG Export Plug-In . SVG Version: 6.00 Build 0)  -->
<svg version="1.1" id="Layer_1" xmlns="http://www.w3.org/2000/svg" xmlns:xlink="http://www.w3.org/1999/xlink" x="0px" y="0px"
	 viewBox="0 0 191.2 121.5" style="enable-background:new 0 0 191.2 121.5;" xml:space="preserve">
<style type="text/css">
	.st0{fill:#002E52;}
</style>
<g>
	<path class="st0" d="M174.4,20.6h-8.3v18.2h-10.6v7.1h10.6V87c-0.1,5.3,0.9,9,3,11c2,2,5.6,3,10.7,3c1.1,0,2.2,0,3.3-0.1
		c1.1-0.1,2.2-0.1,3.3-0.1h0.4v-7.1l-0.5,0.1c-2.1,0.2-4.2,0.4-6.3,0.4c-2.5-0.1-4.1-0.8-4.6-2.1c-0.6-1.3-1-3.2-1-5.5V45.9h12.4
		v-7.1h-12.4V20.6z"/>
</g>
<g>
	<path class="st0" d="M114.8,76.1c-0.5,3.7-1.9,6.6-4,8.8c-2.1,2.1-5.1,3.2-8.9,3.2c-2.5,0-4.6-0.6-6.4-1.7
		c-1.7-1.1-3.1-2.6-4.2-4.4c-1-1.8-1.8-3.8-2.2-6c-0.5-2.2-0.7-4.5-0.7-6.6c0-2.2,0.2-4.5,0.7-6.8c0.5-2.3,1.3-4.3,2.4-6.2
		c1.1-1.9,2.5-3.4,4.3-4.6c1.7-1.2,3.9-1.7,6.5-1.7c7,0,10.9,3.3,11.9,10.1l0.1,0.4h17.2l0-0.5c-0.2-4-1.2-7.5-2.9-10.4
		c-1.7-2.9-3.9-5.4-6.5-7.3c-2.7-1.9-5.7-3.4-9.1-4.4c-3.4-0.9-6.9-1.4-10.5-1.4c-5,0-9.5,0.8-13.4,2.5c-3.9,1.7-7.2,4-9.9,7
		c-2.7,3-4.8,6.5-6.2,10.6c-1.4,4.1-2.1,8.5-2.1,13.3c0,4.6,0.8,8.9,2.3,12.7c1.5,3.8,3.6,7.2,6.3,10c2.7,2.8,6,5,9.9,6.5
		c3.8,1.5,8.1,2.3,12.7,2.3c8.2,0,15-2.2,20.2-6.4c5.2-4.3,8.5-10.6,9.6-18.7l0.1-0.5h-17L114.8,76.1z"/>
	<path class="st0" d="M59.3,47.8c-2.5-3.4-5.7-6.2-9.6-8.2c-3.9-2-8.5-3-13.8-3c-4.7,0-9,0.8-12.8,2.5c-3.8,1.7-7.2,4-10,6.9
		c-2.8,2.9-5,6.4-6.5,10.3c-1.5,4-2.3,8.3-2.3,12.9c0,4.7,0.7,9.1,2.2,13.1c1.5,4,3.6,7.4,6.3,10.3c2.7,2.9,6,5.1,9.9,6.6
		c3.9,1.5,8.3,2.3,13.1,2.3c7,0,13-1.6,17.9-4.8c4.9-3.2,8.6-8.5,11-15.9l0.2-0.6H49.4l-0.1,0.3c-0.5,1.8-2,3.5-4.3,5.1
		c-2.4,1.6-5.2,2.5-8.5,2.5c-4.6,0-8.1-1.2-10.5-3.5c-2.4-2.3-3.7-6-4-11h43.9l0-0.4c0.3-4.7-0.1-9.3-1.2-13.7
		C63.6,55.2,61.8,51.2,59.3,47.8 M29,51.4c1.7-0.9,3.9-1.3,6.5-1.3c3.9,0,6.9,1.1,8.8,3.2c1.9,2,3.2,5,4,8.9H22
		c0.1-1,0.3-2.2,0.7-3.4c0.4-1.4,1.1-2.8,2.2-4.1C25.9,53.3,27.3,52.2,29,51.4"/>
	<rect x="140" y="38.4" class="st0" width="8.3" height="61.6"/>
	<rect x="140" y="20.1" class="st0" width="8.3" height="7.8"/>
</g>
</svg>
